<svg xmlns="http://www.w3.org/2000/svg" version="1.1" xmlns:xlink="http://www.w3.org/1999/xlink" width="200" height="200"><svg xmlns="http://www.w3.org/2000/svg" version="1.1" xmlns:xlink="http://www.w3.org/1999/xlink" width="200" height="200"><svg xmlns="http://www.w3.org/2000/svg" version="1.1" xmlns:xlink="http://www.w3.org/1999/xlink" viewBox="0 0 200 200"><rect width="200" height="200" fill="url('#gradient')"></rect><defs><linearGradient id="gradient" gradientTransform="rotate(45 0.5 0.5)"><stop offset="0%" stop-color="#f0e040"></stop><stop offset="100%" stop-color="#f0e040"></stop></linearGradient></defs><g><g fill="#0a0a0f" transform="matrix(6.047244094488189,0,0,6.047244094488189,18.511824409792737,142.9700419808936)" stroke="#0e5278" stroke-width="0"><path d="M12.95-14.22L12.95 0L9.54 0L4.50-8.85L4.50 0L1.07 0L1.07-14.22L4.50-14.22L9.53-5.37L9.53-14.22L12.95-14.22ZM22.45-3.78L22.45-3.78Q22.45-4.53 21.92-4.95Q21.39-5.37 20.05-5.82Q18.71-6.27 17.86-6.69L17.86-6.69Q15.10-8.05 15.10-10.42L15.10-10.42Q15.10-11.60 15.79-12.50Q16.47-13.41 17.73-13.91Q18.99-14.41 20.57-14.41L20.57-14.41Q22.10-14.41 23.32-13.87Q24.53-13.32 25.21-12.31Q25.88-11.30 25.88-10L25.88-10L22.46-10Q22.46-10.87 21.93-11.35Q21.40-11.83 20.49-11.83L20.49-11.83Q19.57-11.83 19.04-11.42Q18.51-11.02 18.51-10.39L18.51-10.39Q18.51-9.84 19.09-9.40Q19.68-8.96 21.15-8.48Q22.63-8.01 23.57-7.46L23.57-7.46Q25.88-6.13 25.88-3.80L25.88-3.80Q25.88-1.93 24.47-0.87Q23.07 0.20 20.62 0.20L20.62 0.20Q18.89 0.20 17.49-0.42Q16.08-1.04 15.38-2.12Q14.67-3.20 14.67-4.61L14.67-4.61L18.11-4.61Q18.11-3.47 18.70-2.92Q19.29-2.38 20.62-2.38L20.62-2.38Q21.46-2.38 21.96-2.75Q22.45-3.12 22.45-3.78Z"></path></g></g></svg></svg><style>@media (prefers-color-scheme: light) { :root { filter: none; } }
@media (prefers-color-scheme: dark) { :root { filter: none; } }
</style></svg>